<?xml version="1.0" standalone="no"?>
<!DOCTYPE svg PUBLIC "-//W3C//DTD SVG 20010904//EN"
 "http://www.w3.org/TR/2001/REC-SVG-20010904/DTD/svg10.dtd">
<svg version="1.0" xmlns="http://www.w3.org/2000/svg"
 width="212.000000pt" height="215.000000pt" viewBox="0 0 212.000000 215.000000"
 preserveAspectRatio="xMidYMid meet">

<g transform="translate(0.000000,215.000000) scale(0.100000,-0.100000)"
fill="#000000" stroke="none">
<path d="M969 2127 c-102 -29 -203 -122 -242 -223 -9 -23 -19 -69 -23 -103
l-7 -61 -112 0 c-155 0 -210 -22 -255 -102 -20 -35 -29 -107 -91 -726 -38
-378 -69 -702 -69 -721 0 -55 36 -116 87 -150 l46 -31 764 0 c644 0 768 2 792
14 44 23 99 91 107 132 4 22 -20 307 -64 740 -63 634 -72 706 -92 742 -45 80
-100 102 -255 102 l-111 0 -11 73 c-13 91 -42 152 -101 214 -66 68 -145 104
-241 109 -45 2 -95 -1 -122 -9z m191 -102 c95 -33 164 -123 176 -228 l7 -57
-273 0 -273 0 6 55 c10 103 83 196 180 232 45 16 127 16 177 -2z m-460 -466
c0 -43 -5 -57 -30 -86 -23 -25 -30 -43 -30 -74 0 -106 128 -157 195 -77 47 56
45 109 -6 160 -24 25 -29 38 -29 79 l0 49 270 0 270 0 0 -53 c0 -41 -4 -55
-20 -64 -55 -35 -63 -123 -14 -174 103 -108 262 43 164 154 -25 29 -30 43 -30
86 l0 51 109 0 c90 0 113 -3 131 -18 22 -18 26 -47 91 -698 38 -373 69 -687
69 -696 0 -10 -9 -27 -20 -38 -20 -20 -33 -20 -750 -20 -717 0 -730 0 -750 20
-11 11 -20 28 -20 38 0 9 31 323 69 696 65 651 69 680 91 698 18 15 41 18 131
18 l109 0 0 -51z"/>
</g>
</svg>
