<?xml version="1.0" standalone="no"?>
<!DOCTYPE svg PUBLIC "-//W3C//DTD SVG 20010904//EN"
 "http://www.w3.org/TR/2001/REC-SVG-20010904/DTD/svg10.dtd">
<svg version="1.0" xmlns="http://www.w3.org/2000/svg"
 width="223.000000pt" height="205.000000pt" viewBox="0 0 223.000000 205.000000"
 preserveAspectRatio="xMidYMid meet">

<g transform="translate(0.000000,205.000000) scale(0.100000,-0.100000)"
fill="#000000" stroke="none">
<path d="M927 2014 c-326 -59 -624 -310 -746 -631 -51 -135 -82 -373 -47 -360
56 22 289 43 582 54 l185 6 16 35 c22 46 70 94 118 116 28 14 54 17 104 14 84
-5 141 -40 182 -113 l29 -52 196 -7 c227 -8 493 -30 544 -46 19 -5 36 -10 37
-10 9 0 1 120 -12 194 -58 334 -307 631 -632 755 -155 59 -379 77 -556 45z
m407 -110 c94 -24 199 -70 278 -120 94 -60 221 -188 281 -285 73 -119 147
-344 112 -344 -5 0 -77 6 -160 12 -82 7 -213 15 -290 19 l-140 7 -30 41 c-34
45 -118 101 -180 117 -22 6 -70 9 -106 7 -99 -7 -211 -74 -256 -151 -6 -12
-56 -17 -238 -27 -126 -6 -259 -15 -295 -19 -36 -5 -69 -6 -73 -4 -23 14 55
236 120 342 61 97 187 225 283 286 94 60 258 123 353 135 93 11 266 3 341 -16z"/>
<path d="M1053 1159 c-30 -15 -48 -33 -62 -63 -26 -53 -26 -89 0 -142 22 -47
82 -84 134 -84 16 0 48 9 71 21 47 22 84 82 84 134 0 52 -37 112 -84 134 -54
26 -90 26 -143 0z"/>
<path d="M510 949 c-166 -11 -307 -26 -351 -39 l-36 -10 10 -62 c19 -129 102
-310 198 -435 140 -181 383 -329 604 -368 339 -59 663 41 901 279 133 134 226
298 269 472 26 106 22 117 -49 131 -87 17 -295 33 -516 39 l-195 6 -27 -51
c-77 -141 -286 -149 -379 -15 -16 24 -29 47 -29 53 0 13 -206 13 -400 0z m365
-143 c29 -30 76 -67 106 -82 47 -25 65 -28 144 -29 81 0 95 3 144 30 53 29 97
67 133 112 16 20 23 21 110 17 265 -13 455 -26 471 -30 24 -7 22 -22 -15 -117
-89 -232 -280 -428 -502 -517 -133 -52 -189 -63 -341 -63 -152 0 -208 11 -341
63 -227 90 -429 302 -509 533 -16 47 -26 89 -23 93 10 9 161 23 360 33 95 4
182 9 192 10 12 0 40 -20 71 -53z"/>
</g>
</svg>
