<?xml version="1.0" standalone="no"?>
<!DOCTYPE svg PUBLIC "-//W3C//DTD SVG 20010904//EN"
 "http://www.w3.org/TR/2001/REC-SVG-20010904/DTD/svg10.dtd">
<svg version="1.0" xmlns="http://www.w3.org/2000/svg"
 width="128.000000pt" height="124.000000pt" viewBox="0 0 128.000000 124.000000"
 preserveAspectRatio="xMidYMid meet">

<g transform="translate(0.000000,124.000000) scale(0.100000,-0.100000)"
fill="#000000" stroke="none">
<path d="M560 1195 c-50 -33 -60 -35 -126 -33 -90 2 -114 -12 -153 -90 -26
-51 -38 -63 -90 -91 -34 -18 -66 -42 -73 -54 -6 -12 -11 -53 -10 -90 2 -63 -1
-74 -33 -127 -45 -74 -45 -108 0 -182 32 -52 35 -62 33 -126 -2 -88 12 -112
90 -151 49 -25 61 -38 86 -86 40 -77 63 -91 149 -87 63 2 73 0 125 -33 74 -45
110 -45 183 0 52 32 62 35 126 32 86 -3 113 13 152 91 25 49 36 61 84 84 77
38 93 65 89 152 -2 65 0 74 33 127 45 73 45 105 0 178 -33 52 -35 63 -33 128
2 89 -12 113 -90 152 -51 26 -63 38 -91 90 -18 34 -42 66 -54 73 -12 6 -53 11
-90 10 -63 -2 -74 1 -127 33 -74 45 -109 45 -180 0z m154 -47 c44 -29 61 -34
135 -38 l85 -5 36 -64 c30 -52 45 -68 86 -89 81 -40 84 -45 84 -131 0 -69 4
-81 35 -131 19 -30 35 -61 35 -70 0 -8 -16 -40 -35 -70 -32 -50 -35 -60 -35
-131 0 -86 0 -86 -82 -128 -42 -22 -57 -37 -79 -79 -42 -82 -42 -82 -128 -82
-69 0 -81 -3 -131 -35 -30 -19 -61 -35 -70 -35 -9 0 -40 16 -70 35 -50 31 -62
35 -130 35 -41 0 -80 4 -86 8 -6 4 -21 27 -34 52 -31 61 -47 78 -105 107 -27
14 -52 27 -55 30 -3 3 -8 44 -11 91 -5 75 -10 94 -37 136 -18 28 -32 58 -32
69 0 10 15 39 33 65 28 42 32 55 33 117 1 94 7 109 56 131 61 28 86 51 115
107 14 29 27 54 30 57 3 3 44 7 91 10 77 5 92 9 132 37 25 18 54 32 64 33 11
0 42 -15 70 -32z"/>
<path d="M494 851 c-79 -34 -85 -149 -9 -186 42 -19 60 -19 95 2 56 33 67 105
23 153 -30 32 -75 45 -109 31z m74 -47 c46 -32 17 -114 -40 -114 -28 0 -58 37
-58 69 0 31 30 61 60 61 9 0 26 -7 38 -16z"/>
<path d="M632 627 c-163 -163 -201 -206 -190 -215 11 -9 56 31 221 196 114
115 205 211 201 215 -4 4 -12 7 -18 7 -6 0 -103 -91 -214 -203z"/>
<path d="M725 578 c-61 -33 -73 -107 -26 -160 77 -86 209 8 160 115 -21 47
-89 70 -134 45z m86 -49 c29 -29 23 -79 -13 -99 -25 -13 -31 -13 -55 0 -38 21
-45 81 -11 104 30 22 54 20 79 -5z"/>
</g>
</svg>
