<?xml version="1.0" standalone="no"?>
<!DOCTYPE svg PUBLIC "-//W3C//DTD SVG 20010904//EN"
 "http://www.w3.org/TR/2001/REC-SVG-20010904/DTD/svg10.dtd">
<svg version="1.0" xmlns="http://www.w3.org/2000/svg"
 width="222.000000pt" height="212.000000pt" viewBox="0 0 222.000000 212.000000"
 preserveAspectRatio="xMidYMid meet">

<g transform="translate(0.000000,212.000000) scale(0.100000,-0.100000)"
fill="#000000" stroke="none">
<path d="M1000 2095 c-295 -66 -493 -352 -440 -636 25 -133 125 -267 269 -359
38 -25 70 -48 70 -51 1 -4 -27 -10 -61 -13 -233 -26 -439 -132 -578 -297 -135
-161 -230 -437 -230 -666 l0 -73 1096 0 1097 0 -6 87 c-15 249 -144 525 -322
691 -82 77 -135 114 -237 162 -83 39 -241 90 -282 90 -52 1 -47 17 18 59 195
125 286 271 286 454 0 192 -84 356 -236 460 -131 89 -300 124 -444 92z m293
-162 c224 -106 315 -359 206 -576 -82 -161 -270 -258 -445 -229 -144 24 -264
115 -326 248 -94 201 -5 451 195 548 80 40 109 45 212 43 77 -2 100 -7 158
-34z m-3 -1008 c336 -55 594 -234 732 -509 42 -84 78 -206 78 -267 l0 -37
-902 -4 c-497 -1 -936 -1 -977 0 l-74 4 6 86 c24 328 233 578 576 686 174 55
380 70 561 41z"/>
</g>
</svg>
